<?xml version="1.0" encoding="UTF-8" standalone="no"?>
<!DOCTYPE svg PUBLIC "-//W3C//DTD SVG 1.1//EN" "http://www.w3.org/Graphics/SVG/1.1/DTD/svg11.dtd">
<svg width="100%" height="100%" viewBox="0 0 449 734" version="1.1" xmlns="http://www.w3.org/2000/svg" xmlns:xlink="http://www.w3.org/1999/xlink" xml:space="preserve" xmlns:serif="http://www.serif.com/" style="fill-rule:evenodd;clip-rule:evenodd;">
    <g id="Layer-1" serif:id="Layer 1" transform="matrix(1,0,0,1,-74.3658,136.424)">
        <path id="path4643" d="M188.72,323.236L142.043,326.665L127.85,308.455L136.948,327.639L125.902,330.879L137.264,333.044L130.311,351.849L142.897,333.122L189.456,330.248L188.72,323.236Z" style="fill:rgb(26,26,26);fill-rule:nonzero;"/>
        <path id="path4620" d="M283.314,-17.661C317.993,-27.877 358.147,-16.433 390.312,0.072C420.525,15.575 455.179,38.834 462.455,72.004C498.687,164.838 347.025,257.054 361.514,322.834C374.7,382.67 416.239,391.159 431.56,397.546C458.254,408.673 517.762,407.393 517.762,407.393C517.762,407.393 440.162,441.09 367.067,429.687C332.959,424.365 274.436,408.163 217.705,368.64C212.816,365.233 204.752,365.7 199.921,361.806C193.612,356.723 192.91,343.812 186.848,337.652C105.11,254.577 168.406,18.857 283.314,-17.661Z" style="fill:rgb(122,199,255);fill-rule:nonzero;"/>
        <g id="path4622" transform="matrix(0.841094,0.540889,-0.540889,0.841094,0,0)">
            <path d="M376.597,-81.973C376.597,-57.421 356.447,-37.194 331.896,-37.099C307.344,-37.004 287.038,-57.074 286.848,-81.625C286.658,-106.177 306.65,-126.56 331.2,-126.845C355.75,-127.13 376.211,-107.218 376.591,-82.669" style="fill:white;fill-rule:nonzero;"/>
        </g>
        <g id="path4625" transform="matrix(0.841094,0.540889,-0.540889,0.841094,0,0)">
            <path d="M253.114,-80.227C253.114,-69.009 243.907,-59.768 232.69,-59.724C221.472,-59.681 212.195,-68.851 212.108,-80.068C212.021,-91.286 221.155,-100.599 232.372,-100.729C243.589,-100.86 252.937,-91.761 253.111,-80.545" style="fill:white;fill-rule:nonzero;"/>
        </g>
        <g id="path4628" transform="matrix(0.841094,0.540889,-0.540889,0.841094,0,0)">
            <path d="M303.905,-75.991C303.905,-72.272 300.853,-69.208 297.134,-69.194C293.415,-69.179 290.34,-72.219 290.311,-75.938C290.282,-79.657 293.31,-82.744 297.029,-82.788C300.748,-82.831 303.847,-79.815 303.904,-76.096" style="fill:rgb(51,51,51);fill-rule:nonzero;"/>
        </g>
        <g id="path4630" transform="matrix(0.841094,0.540889,-0.540889,0.841094,0,0)">
            <path d="M223.194,-74.956C223.194,-72.559 221.226,-70.584 218.83,-70.575C216.433,-70.566 214.45,-72.525 214.432,-74.922C214.413,-77.319 216.365,-79.309 218.762,-79.337C221.158,-79.364 223.156,-77.42 223.193,-75.024" style="fill:rgb(51,51,51);fill-rule:nonzero;"/>
        </g>
        <path id="path4633" d="M301.125,234.178C327.394,248.129 334.488,308.859 365.448,344.12C348.721,337.237 339.773,329.718 334.54,321.978C335.839,332.514 345.778,344.183 371.293,365.267C333.026,350.23 264.34,325.307 258.662,278.703C256.466,260.689 282.808,224.449 301.123,234.176L301.125,234.178Z" style="fill:rgb(43,0,0);fill-opacity:0.47;fill-rule:nonzero;"/>
        <path id="path4647" d="M155.608,167.488C155.608,167.488 177.241,147.662 201.917,164.944C230.309,184.826 245.646,215.426 230.938,269.791C219.915,310.538 183.847,334.722 183.847,334.722C142.82,289.89 146.119,211.067 155.608,167.483L155.608,167.488Z" style="fill:rgb(178,225,255);fill-rule:nonzero;"/>
        <path id="path4635-8" d="M181.47,78.891L111.753,91.061L175.989,122.441L181.47,78.891Z" style="fill:rgb(240,231,198);fill-rule:nonzero;"/>
        <path id="rect3359" d="M74.366,-136.424L133.742,-136.424L133.742,74.618L116.316,91.398L133.742,120.441L133.742,596.739L74.366,596.739L74.366,-136.424Z" style="fill:rgb(170,68,0);fill-rule:nonzero;"/>
        <path id="path4635-0" d="M187.47,78.891L117.753,91.061L181.989,122.441L187.47,78.891Z" style="fill:rgb(245,220,122);fill-rule:nonzero;"/>
        <path id="path4635" d="M193.47,78.891L123.753,91.061L187.989,122.441L193.47,78.891Z" style="fill:rgb(255,212,42);fill-rule:nonzero;"/>
        <path id="path4637" d="M201.52,350.842L143.253,361.905L127.682,344.858L138.249,363.273L127.49,367.365L138.987,368.637L133.522,387.927L144.609,368.274L202.801,357.775L201.52,350.842Z" style="fill:rgb(26,26,26);fill-rule:nonzero;"/>
        <path id="path4162" d="M487.501,62.505C487.501,62.505 495.515,92.09 493.936,108.362C492.356,124.635 476.013,158.94 476.013,158.94" style="fill:none;stroke:rgb(122,199,255);stroke-width:6.1px;"/>
        <path id="path4162-5" d="M515.183,79.711C515.183,79.711 521.261,98.97 519.682,115.242C518.102,131.514 506.923,154.848 506.923,154.848" style="fill:none;stroke:rgb(122,199,255);stroke-width:6.1px;"/>
        <path id="path4179" d="M140.47,58.01L147.686,61.66L136.865,80.083L140.47,58.01Z" style="fill:rgb(170,68,0);"/>
        <path id="path4181" d="M148.647,71.306L167.814,62.178L165.989,58.071L148.647,71.306Z" style="fill:rgb(170,68,0);"/>
        <path id="path4183" d="M138.835,112.834L150.701,128.351L137.922,129.72L138.835,112.834Z" style="fill:rgb(170,68,0);"/>
    </g>
</svg>
